<svg viewBox="0 0 96 96" xmlns="http://www.w3.org/2000/svg" xmlns:xlink="http://www.w3.org/1999/xlink" id="Icons_ThoughtBubble" overflow="hidden"><style>
.MsftOfcThm_Text1_Stroke_v2 {
 stroke:#000000; 
}
</style>
<g><path d="M77 30C76.2 30 75.5 30.1 74.7 30.3 74.9 29.6 75 28.8 75 28 75 22.5 70.5 18 65 18 62.7 18 60.5 18.8 58.8 20.1 58 15.5 53.9 12 49 12 44.4 12 40.5 15.2 39.3 19.5 37.5 16.8 34.5 15 31 15 25.5 15 21 19.5 21 25 21 25.8 21.1 26.5 21.3 27.3 20.5 27.1 19.8 27 19 27 13.5 27 9 31.5 9 37 9 42.5 13.5 47 19 47 19 47 19 47 19.1 47 19.6 52.1 23.9 56 29 56 31.3 56 33.4 55.2 35.1 53.9 35.1 54.2 35 54.6 35 55 35 60.5 39.5 65 45 65 50.2 65 54.5 61 55 55.9 56.8 58.4 59.7 60 63 60 68.5 60 73 55.5 73 50 73 49.7 73 49.4 73 49.1 74.2 49.6 75.6 50 77 50 82.5 50 87 45.5 87 40 87 34.5 82.5 30 77 30Z" class="MsftOfcThm_Text1_Stroke_v2" stroke="#000000" stroke-width="1.14286" stroke-opacity="1" fill="#00B0F0" fill-opacity="1"/><circle cx="29" cy="69" r="6" class="MsftOfcThm_Text1_Stroke_v2" stroke="#000000" stroke-width="1.14286" stroke-opacity="1" fill="#00B0F0" fill-opacity="1"/><circle cx="17" cy="79.5" r="4.5" class="MsftOfcThm_Text1_Stroke_v2" stroke="#000000" stroke-width="1.14286" stroke-opacity="1" fill="#00B0F0" fill-opacity="1"/></g></svg>