<svg viewBox="0 0 96 96" xmlns="http://www.w3.org/2000/svg" xmlns:xlink="http://www.w3.org/1999/xlink" id="Icons_Warning" overflow="hidden"><style>
.MsftOfcThm_Text1_Stroke_v2 {
 stroke:#000000; 
}
</style>
<path d="M90.6 80 51.5 12C50 9.3 46.1 9.3 44.6 12L5.4 80C3.9 82.7 5.8 86 8.9 86L48 86 87.1 86C90.2 86 92.1 82.7 90.6 80ZM45 28 51 28 51 63 45 63 45 28ZM48 77C45.2 77 43 74.8 43 72 43 69.2 45.2 67 48 67 50.8 67 53 69.2 53 72 53 74.8 50.8 77 48 77Z" class="MsftOfcThm_Text1_Stroke_v2" stroke="#000000" stroke-width="1.14286" stroke-opacity="1" fill="#FFD12F" fill-opacity="1"/></svg>